<svg width="40" height="40" viewBox="0 0 40 40" fill="none" xmlns="http://www.w3.org/2000/svg">
<path d="M6.66669 31.6666V28.3333H10V16.6666C10 14.361 10.6945 12.3194 12.0834 10.5416C13.4722 8.73603 15.2778 7.55547 17.5 6.99992V5.83325C17.5 5.13881 17.7361 4.55547 18.2084 4.08325C18.7084 3.58325 19.3056 3.33325 20 3.33325C20.6945 3.33325 21.2778 3.58325 21.75 4.08325C22.25 4.55547 22.5 5.13881 22.5 5.83325V6.99992C24.7222 7.55547 26.5278 8.73603 27.9167 10.5416C29.3056 12.3194 30 14.361 30 16.6666V28.3333H33.3334V31.6666H6.66669ZM20 36.6666C19.0834 36.6666 18.2917 36.3471 17.625 35.7082C16.9861 35.0416 16.6667 34.2499 16.6667 33.3333H23.3334C23.3334 34.2499 23 35.0416 22.3334 35.7082C21.6945 36.3471 20.9167 36.6666 20 36.6666ZM13.3334 28.3333H26.6667V16.6666C26.6667 14.8333 26.0139 13.2638 24.7084 11.9583C23.4028 10.6527 21.8334 9.99992 20 9.99992C18.1667 9.99992 16.5972 10.6527 15.2917 11.9583C13.9861 13.2638 13.3334 14.8333 13.3334 16.6666V28.3333Z" fill="#F8F9FA"/>
</svg>
